<?xml version="1.0" encoding="UTF-8" standalone="no"?>
<svg
   height="48"
   viewBox="0 96 960 960"
   width="48"
   version="1.1"
   id="svg1277"
   sodipodi:docname="map_FILL0_wght400_GRAD0_opsz48.svg"
   inkscape:version="1.2.2 (b0a8486541, 2022-12-01)"
   xmlns:inkscape="http://www.inkscape.org/namespaces/inkscape"
   xmlns:sodipodi="http://sodipodi.sourceforge.net/DTD/sodipodi-0.dtd"
   xmlns="http://www.w3.org/2000/svg"
   xmlns:svg="http://www.w3.org/2000/svg">
  <defs
     id="defs1281" />
  <sodipodi:namedview
     id="namedview1279"
     pagecolor="#ffffff"
     bordercolor="#111111"
     borderopacity="1"
     inkscape:showpageshadow="0"
     inkscape:pageopacity="0"
     inkscape:pagecheckerboard="1"
     inkscape:deskcolor="#d1d1d1"
     showgrid="false"
     inkscape:zoom="21.9375"
     inkscape:cx="16.592593"
     inkscape:cy="24"
     inkscape:window-width="1699"
     inkscape:window-height="1310"
     inkscape:window-x="1727"
     inkscape:window-y="90"
     inkscape:window-maximized="1"
     inkscape:current-layer="svg1277" />
  <path
     d="m612 936-263-93-179 71q-17 9-33.5-1T120 883V325q0-13 7.5-23t19.5-15l202-71 263 92 178-71q17-8 33.5 1.5T840 268v565q0 11-7.5 19T814 864l-202 72Zm-34-75V356l-196-66v505l196 66Zm60 0 142-47V302l-142 54v505Zm-458-12 142-54V290l-142 47v512Zm458-493v505-505Zm-316-66v505-505Z"
     id="path1275"
     style="fill:#ffffff" />
</svg>
