<?xml version="1.0" encoding="UTF-8" standalone="no"?>
<svg
   height="48"
   viewBox="0 96 960 960"
   width="48"
   version="1.1"
   id="svg902"
   sodipodi:docname="incoming_mail.svg"
   inkscape:version="1.2.2 (b0a8486541, 2022-12-01)"
   xmlns:inkscape="http://www.inkscape.org/namespaces/inkscape"
   xmlns:sodipodi="http://sodipodi.sourceforge.net/DTD/sodipodi-0.dtd"
   xmlns="http://www.w3.org/2000/svg"
   xmlns:svg="http://www.w3.org/2000/svg">
  <defs
     id="defs906" />
  <sodipodi:namedview
     id="namedview904"
     pagecolor="#ffffff"
     bordercolor="#111111"
     borderopacity="1"
     inkscape:showpageshadow="0"
     inkscape:pageopacity="0"
     inkscape:pagecheckerboard="1"
     inkscape:deskcolor="#d1d1d1"
     showgrid="false"
     inkscape:zoom="10.96875"
     inkscape:cx="5.1965812"
     inkscape:cy="38.336182"
     inkscape:window-width="1699"
     inkscape:window-height="1310"
     inkscape:window-x="1727"
     inkscape:window-y="90"
     inkscape:window-maximized="1"
     inkscape:current-layer="svg902" />
  <path
     d="m734 892-42-42 73-74H584v-60h181l-73-74 42-42 146 146-146 146ZM140 776q-24.75 0-42.375-17.625T80 716V276q0-24.75 17.625-42.375T140 216h560q24.75 0 42.375 17.625T760 276v232q-7.5-1-15-1.5t-15-.5q-8 0-15 .5t-15 1.5V323L416 524 140 324v392h351q-1 8-1 13.5v13.75q0 8.25.5 16.5T493 776H140Zm36-500 240 174 246-174H176Zm-36 440V276v440Z"
     id="path900"
     style="fill:#ffffff" />
</svg>
