<?xml version="1.0" encoding="UTF-8" standalone="no"?>
<svg
   height="37.657768"
   viewBox="0 96 1224.0678 753.15536"
   width="61.203388"
   version="1.1"
   id="svg4"
   sodipodi:docname="outgoing_mail.svg"
   xml:space="preserve"
   xmlns:inkscape="http://www.inkscape.org/namespaces/inkscape"
   xmlns:sodipodi="http://sodipodi.sourceforge.net/DTD/sodipodi-0.dtd"
   xmlns="http://www.w3.org/2000/svg"
   xmlns:svg="http://www.w3.org/2000/svg"><defs
     id="defs8" /><sodipodi:namedview
     id="namedview6"
     pagecolor="#ffffff"
     bordercolor="#111111"
     borderopacity="1"
     inkscape:showpageshadow="0"
     inkscape:pageopacity="0"
     inkscape:pagecheckerboard="1"
     inkscape:deskcolor="#d1d1d1"
     showgrid="false" /><g
     id="g343"
     style="fill:#ffffff"
     transform="translate(-1015.7267,-565.58618)"><g
       id="g302"
       style="fill:#ffffff"><path
         d="m 2121.6739,1208.501 -33.9799,-33.9799 59.0604,-59.8694 h -146.4373 v -48.5427 h 146.4373 l -59.0604,-59.8694 33.9799,-33.97989 118.1207,118.12059 z m -480.5731,-93.8493 q -20.0238,0 -34.2833,-14.2594 -14.2594,-14.2595 -14.2594,-34.2833 V 710.12892 q 0,-20.02388 14.2594,-34.28331 14.2595,-14.25942 34.2833,-14.25942 h 453.0656 q 20.0239,0 34.2833,14.25942 14.2594,14.25943 14.2594,34.28331 v 187.69859 q -6.0678,-0.80905 -12.1357,-1.21357 -6.0678,-0.40452 -12.1356,-0.40452 -6.4724,0 -12.1357,0.40452 -5.6633,0.40452 -12.1357,1.21357 V 748.15407 L 1864.3974,910.77224 1641.1008,748.96311 V 1066.109 h 283.9751 q -0.8091,6.4723 -0.8091,10.9221 v 11.1244 q 0,6.6746 0.4045,13.3492 0.4046,6.6746 2.0226,13.147 z m 29.1257,-404.52278 194.1709,140.77394 199.0253,-140.77394 z M 1641.1008,1066.109 V 710.12892 Z"
         id="path2"
         style="fill:#ffffff;stroke-width:0.999997" /><path
         d="m 1335.7267,1093.7416 q -66,0 -108,-42 -42,-42 -42,-108 0,-66 42,-108 42,-42 108,-42 66,0 108,42 42,42 42,108 0,66 -42,108 -42,42 -108,42 z m -320,321 v -94 q 0,-38 19,-65 19,-27 49,-41 67,-30 128.5,-45 61.5,-15 123.5,-15 62,0 123,15.5 61,15.5 127.921,44.694 31.301,14.126 50.19,40.966 18.889,26.84 18.889,64.84 v 94 z m 60,-60 h 520 v -34 q 0,-16 -9.5,-30.5 -9.5,-14.5 -23.5,-21.5 -64,-31 -117,-42.5 -53,-11.5 -110,-11.5 -57,0 -111,11.5 -54,11.5 -117,42.5 -14,7 -23,21.5 -9,14.5 -9,30.5 z m 260,-321 q 39,0 64.5,-25.5 25.5,-25.5 25.5,-64.5 0,-39 -25.5,-64.5 -25.5,-25.5 -64.5,-25.5 -39,0 -64.5,25.5 -25.5,25.5 -25.5,64.5 0,39 25.5,64.5 25.5,25.5 64.5,25.5 z m 0,-90 z m 0,411 z"
         id="path237"
         style="fill:#ffffff" /></g></g></svg>
