<?xml version="1.0" encoding="UTF-8" standalone="no"?>
<svg
   height="48"
   viewBox="0 96 960 960"
   width="48"
   version="1.1"
   id="svg4"
   sodipodi:docname="category_FILL0_wght400_GRAD0_opsz48.svg"
   inkscape:version="1.2.2 (b0a8486541, 2022-12-01)"
   xmlns:inkscape="http://www.inkscape.org/namespaces/inkscape"
   xmlns:sodipodi="http://sodipodi.sourceforge.net/DTD/sodipodi-0.dtd"
   xmlns="http://www.w3.org/2000/svg"
   xmlns:svg="http://www.w3.org/2000/svg">
  <defs
     id="defs8" />
  <sodipodi:namedview
     id="namedview6"
     pagecolor="#ffffff"
     bordercolor="#111111"
     borderopacity="1"
     inkscape:showpageshadow="0"
     inkscape:pageopacity="0"
     inkscape:pagecheckerboard="1"
     inkscape:deskcolor="#d1d1d1"
     showgrid="false"
     inkscape:zoom="21.9375"
     inkscape:cx="16.592593"
     inkscape:cy="24.045584"
     inkscape:window-width="1699"
     inkscape:window-height="1336"
     inkscape:window-x="1727"
     inkscape:window-y="64"
     inkscape:window-maximized="1"
     inkscape:current-layer="svg4" />
  <path
     d="m261 530 220-354 220 354H261Zm445 446q-74 0-124-50t-50-124q0-74 50-124t124-50q74 0 124 50t50 124q0 74-50 124t-124 50Zm-586-25V647h304v304H120Zm586.085-35Q754 916 787 882.916q33-33.085 33-81Q820 754 786.916 721q-33.085-33-81.001-33Q658 688 625 721.084q-33 33.085-33 81Q592 850 625.084 883q33.085 33 81.001 33ZM180 891h184V707H180v184Zm189-421h224L481 289 369 470Zm112 0ZM364 707Zm342 95Z"
     id="path2"
     style="fill:#ffffff" />
</svg>
