<?xml version="1.0" encoding="UTF-8" standalone="no"?>
<svg
   height="48"
   viewBox="0 96 960 960"
   width="48"
   version="1.1"
   id="svg902"
   sodipodi:docname="incoming_mail.svg"
   inkscape:version="1.2.2 (b0a8486541, 2022-12-01)"
   xmlns:inkscape="http://www.inkscape.org/namespaces/inkscape"
   xmlns:sodipodi="http://sodipodi.sourceforge.net/DTD/sodipodi-0.dtd"
   xmlns="http://www.w3.org/2000/svg"
   xmlns:svg="http://www.w3.org/2000/svg">
  <defs
     id="defs906" />
  <sodipodi:namedview
     id="namedview904"
     pagecolor="#ffffff"
     bordercolor="#111111"
     borderopacity="1"
     inkscape:showpageshadow="0"
     inkscape:pageopacity="0"
     inkscape:pagecheckerboard="1"
     inkscape:deskcolor="#d1d1d1"
     showgrid="false"
     inkscape:zoom="10.96875"
     inkscape:cx="-9.4814815"
     inkscape:cy="38.42735"
     inkscape:window-width="1699"
     inkscape:window-height="1310"
     inkscape:window-x="1727"
     inkscape:window-y="90"
     inkscape:window-maximized="1"
     inkscape:current-layer="svg902" />
  <path
     d="m 226,892 42,-42 -73,-74 H 376 V 716 H 195 L 268,642 226,600 80,746 Z M 820,776 q 24.75,0 42.375,-17.625 Q 880,740.75 880,716 V 276 Q 880,251.25 862.375,233.625 844.75,216 820,216 H 260 q -24.75,0 -42.375,17.625 Q 200,251.25 200,276 v 232 q 7.5,-1 15,-1.5 7.5,-0.5 15,-0.5 8,0 15,0.5 7,0.5 15,1.5 V 323 L 544,524 820,324 V 716 H 469 q 1,8 1,13.5 v 13.75 q 0,8.25 -0.5,16.5 Q 469,768 467,776 Z M 784,276 544,450 298,276 Z m 36,440 V 276 Z"
     id="path900"
     style="fill:#ffffff" />
</svg>
