<?xml version="1.0" encoding="UTF-8" standalone="no"?>
<!-- Created with Inkscape (http://www.inkscape.org/) -->

<svg
   width="19.377319mm"
   height="16.668945mm"
   viewBox="0 0 19.377319 16.668945"
   version="1.1"
   id="svg5"
   xml:space="preserve"
   inkscape:version="1.2.2 (b0a8486541, 2022-12-01)"
   sodipodi:docname="icons.svg"
   xmlns:inkscape="http://www.inkscape.org/namespaces/inkscape"
   xmlns:sodipodi="http://sodipodi.sourceforge.net/DTD/sodipodi-0.dtd"
   xmlns="http://www.w3.org/2000/svg"
   xmlns:svg="http://www.w3.org/2000/svg"><sodipodi:namedview
     id="namedview7"
     pagecolor="#ffffff"
     bordercolor="#111111"
     borderopacity="1"
     inkscape:showpageshadow="0"
     inkscape:pageopacity="0"
     inkscape:pagecheckerboard="1"
     inkscape:deskcolor="#d1d1d1"
     inkscape:document-units="mm"
     showgrid="false"
     inkscape:zoom="1.3266288"
     inkscape:cx="1810.6044"
     inkscape:cy="789.5954"
     inkscape:window-width="3440"
     inkscape:window-height="1440"
     inkscape:window-x="0"
     inkscape:window-y="0"
     inkscape:window-maximized="1"
     inkscape:current-layer="layer1" /><defs
     id="defs2" /><g
     inkscape:label="Layer 1"
     inkscape:groupmode="layer"
     id="layer1"
     transform="translate(-532.33638,-147.9831)"><path
       d="m 549.09338,160.57836 -1.10098,-1.10099 q 1.05694,-1.123 1.61844,-2.30106 0.56151,-1.17805 0.56151,-2.89557 0,-1.71755 -0.56151,-2.8956 -0.5615,-1.17805 -1.61844,-2.30106 l 1.10098,-1.10098 q 1.2331,1.27715 1.92673,2.78549 0.69362,1.50834 0.69362,3.51215 0,2.00378 -0.69362,3.51214 -0.69363,1.50834 -1.92673,2.78548 z m -3.06073,-3.12679 -1.101,-1.10098 q 0.39637,-0.44041 0.61657,-0.93584 0.22019,-0.49545 0.22019,-1.13401 0,-0.63858 -0.22019,-1.13403 -0.2202,-0.49543 -0.61657,-0.93583 l 1.101,-1.10098 q 0.5725,0.61655 0.92483,1.4423 0.35231,0.82572 0.35231,1.72854 0,0.9028 -0.35231,1.72855 -0.35233,0.82572 -0.92483,1.44228 z m -6.64995,0.13216 q -1.4533,0 -2.37813,-0.92482 -0.92481,-0.92483 -0.92481,-2.37812 0,-1.45331 0.92481,-2.37813 0.92483,-0.92483 2.37813,-0.92483 1.45331,0 2.37812,0.92483 0.92484,0.92482 0.92484,2.37813 0,1.45329 -0.92484,2.37812 -0.92481,0.92482 -2.37812,0.92482 z m -7.04629,7.06831 v -2.06985 q 0,-0.83674 0.41836,-1.42026 0.41839,-0.58352 1.07897,-0.91381 1.123,-0.57252 2.65338,-0.94685 1.53035,-0.37434 2.89558,-0.37434 1.36522,0 2.88457,0.37434 1.51938,0.37433 2.64236,0.94685 0.6606,0.33029 1.08999,0.91381 0.42938,0.58352 0.42938,1.42026 v 2.06985 z m 1.32118,-1.32118 h 11.45023 v -0.74867 q 0,-0.35229 -0.18716,-0.64958 -0.18718,-0.29725 -0.5395,-0.49542 -1.05694,-0.59454 -2.40014,-0.89182 -1.34319,-0.29725 -2.59832,-0.29725 -1.25512,0 -2.60933,0.31927 -1.35421,0.3193 -2.41116,0.8698 -0.30828,0.15412 -0.50645,0.47341 -0.19817,0.3193 -0.19817,0.67159 z m 5.72511,-7.06831 q 0.85877,0 1.42026,-0.5615 0.56151,-0.56151 0.56151,-1.42026 0,-0.85878 -0.56151,-1.42029 -0.56149,-0.56149 -1.42026,-0.56149 -0.85876,0 -1.42027,0.56149 -0.5615,0.56151 -0.5615,1.42029 0,0.85875 0.5615,1.42026 0.56151,0.5615 1.42027,0.5615 z m 0,-1.98176 z m 0,9.05007 z"
       id="path8398-7-5"
       style="fill:#ffffff;stroke-width:0.0132292"
       inkscape:export-filename="voice_comm.svg"
       inkscape:export-xdpi="300"
       inkscape:export-ydpi="300" /></g><style
     type="text/css"
     id="style2528">
	.linesandangles_een{fill:#111918;}
</style></svg>
