<?xml version="1.0" encoding="UTF-8" standalone="no"?>
<svg
   height="48"
   viewBox="0 96 960 960"
   width="48"
   version="1.1"
   id="svg4"
   sodipodi:docname="time.svg"
   inkscape:version="1.2.2 (b0a8486541, 2022-12-01)"
   xmlns:inkscape="http://www.inkscape.org/namespaces/inkscape"
   xmlns:sodipodi="http://sodipodi.sourceforge.net/DTD/sodipodi-0.dtd"
   xmlns="http://www.w3.org/2000/svg"
   xmlns:svg="http://www.w3.org/2000/svg">
  <defs
     id="defs8" />
  <sodipodi:namedview
     id="namedview6"
     pagecolor="#ffffff"
     bordercolor="#111111"
     borderopacity="1"
     inkscape:showpageshadow="0"
     inkscape:pageopacity="0"
     inkscape:pagecheckerboard="1"
     inkscape:deskcolor="#d1d1d1"
     showgrid="false"
     inkscape:zoom="21.9375"
     inkscape:cx="16.592593"
     inkscape:cy="24"
     inkscape:window-width="1699"
     inkscape:window-height="1336"
     inkscape:window-x="1727"
     inkscape:window-y="64"
     inkscape:window-maximized="1"
     inkscape:current-layer="svg4" />
  <path
     d="m627 769 45-45-159-160V363h-60v225l174 181ZM480 976q-82 0-155-31.5t-127.5-86Q143 804 111.5 731T80 576q0-82 31.5-155t86-127.5Q252 239 325 207.5T480 176q82 0 155 31.5t127.5 86Q817 348 848.5 421T880 576q0 82-31.5 155t-86 127.5Q708 913 635 944.5T480 976Zm0-400Zm0 340q140 0 240-100t100-240q0-140-100-240T480 236q-140 0-240 100T140 576q0 140 100 240t240 100Z"
     id="path2"
     style="fill:#ffffff" />
</svg>
